<mxfile host="app.diagrams.net" modified="2023-10-26T21:37:27.477Z" agent="Mozilla/5.0 (Windows NT 10.0; Win64; x64) AppleWebKit/537.36 (KHTML, like Gecko) Chrome/118.0.0.0 Safari/537.36" version="22.0.8" etag="UFTXz7_GqytDtVxHFdxU" type="github">
  <diagram name="Page-1" id="dXTh_PI_UYBEd650C4bF">
    <mxGraphModel>
      <root>
        <mxCell id="0" />
        <mxCell id="1" parent="0" />
      </root>
    </mxGraphModel>
  </diagram>
</mxfile>
